<?xml version="1.0" encoding="UTF-8"?>
<svg xmlns="http://www.w3.org/2000/svg" viewBox="0 0 105 105">
  <defs>
    <style>
      .cls-1 {
        fill: #78bdff;
      }

      .cls-2 {
        fill: #ce5900;
      }

      .cls-3 {
        fill: #d26817;
      }

      .cls-4 {
        fill: #348fe5;
      }

      .cls-5 {
        fill: #e7e7e7;
      }

      .cls-6 {
        fill: #ab3e00;
      }

      .cls-7 {
        isolation: isolate;
      }

      .cls-7, .cls-8 {
        fill: none;
      }

      .cls-9 {
        fill: #cec5c7;
        mix-blend-mode: multiply;
      }

      .cls-8 {
        mix-blend-mode: soft-light;
        opacity: .65;
      }

      .cls-10 {
        fill: #3a9fff;
      }

      .cls-11 {
        fill: #ffa400;
      }

      .cls-12 {
        fill: #1d4f7f;
      }
    </style>
  </defs>
  <g class="cls-7">
    <g id="Capa_2" data-name="Capa 2">
      <g id="Process">
        <circle class="cls-5" cx="52.5" cy="52.5" r="52.5"/>
        <g>
          <path class="cls-12" d="m77.11,29.9H29.61c-1.61,0-2.91,1.3-2.91,2.91v38.94h50.35c.89,0,1.61-.72,1.61-1.61V31.44c0-.85-.69-1.54-1.54-1.54Z"/>
          <path class="cls-4" d="m77.11,29.9H29.61c-1.61,0-2.91,1.3-2.91,2.91v38.94h.17v-38.21c0-1.61,1.3-2.91,2.91-2.91h47.5c.6,0,1.12.35,1.37.85v-.04c0-.85-.69-1.54-1.54-1.54Z"/>
          <rect class="cls-12" x="73.89" y="45.75" width="5.11" height="14.29"/>
          <path class="cls-11" d="m66.25,24.26c-.34-.9-1.34-1.36-2.24-1.02l-35.47,13.33c-.9.34-1.36,1.34-1.02,2.24l7.37,19.62c.34.9-.06,2.77.84,2.43l36.88-14.73c.9-.34,1.36-1.34,1.02-2.24l-7.37-19.62Z"/>
          <path class="cls-9" d="m77.04,33.94c0-.9-.73-1.63-1.63-1.63h-6.17l.22.62h-31.2l1.6-.62h-13.11c-.03.16-.05.33-.05.5v38.94h50.35c.89,0,1.61-.72,1.61-1.61v-9.75l-1.62.43v-26.87Z"/>
          <path class="cls-4" d="m74.23,34.44H29.61c-1.34,0-2.57-.91-2.91-2.13v41.36c0,1.61,1.3,2.91,2.91,2.91h44.24c1.06,0,1.93-.86,1.93-1.93v-38.66c0-.85-.69-1.54-1.54-1.54Z"/>
          <path class="cls-1" d="m74.23,34.44H29.61c-1.34,0-2.57-.91-2.91-2.13v.66c.34,1.23,1.57,2.13,2.91,2.13h44.62c.85,0,1.54.69,1.54,1.54v-.66c0-.85-.69-1.54-1.54-1.54Z"/>
          <g class="cls-8">
            <g>
              <path d="m56.7,71h3.11c2.58,0,4.78-.94,6.59-2.84,1.81-1.89,2.71-4.26,2.71-7.1v-3.75l-12.41,13.69Z"/>
              <path d="m43.08,39.6c-2.59,0-4.78.95-6.59,2.84-1.81,1.89-2.71,4.26-2.71,7.1v2.97l11.7-12.91h-2.39Z"/>
              <path d="m69.12,49.54c0-2.85-.91-5.21-2.71-7.1-1.81-1.89-4.01-2.83-6.59-2.83h-3.84l13.15,14.5v-4.56Z"/>
              <path d="m33.78,61.06c0,2.85.9,5.21,2.71,7.1,1.81,1.89,4.01,2.83,6.59,2.83h1.66l-10.97-12.1v2.16Z"/>
              <polygon points="50.91 39.83 36.85 55.34 50.91 70.84 64.97 55.34 50.91 39.83"/>
            </g>
          </g>
          <path class="cls-9" d="m76.5,48.64h-6.48c-3.74,0-7.01,2.88-7.25,6.68-.26,4.17,2.97,7.64,7.01,7.64h6.71c.49,0,.96-.2,1.31-.55l.86-.88v-14.29l-.87.86c-.35.34-.81.54-1.29.54Z"/>
          <g>
            <path class="cls-10" d="m76.8,47.15h-6.61c-3.81,0-7.14,2.88-7.39,6.68-.27,4.17,3.03,7.64,7.14,7.64h6.84c.5,0,.98-.2,1.33-.55l.88-.88v-14.29l-.88.86c-.35.34-.82.54-1.32.54Z"/>
            <path class="cls-1" d="m76.8,47.15h-6.61c-3.81,0-7.14,2.88-7.39,6.68-.02.28-.02.56,0,.84,0-.1,0-.19,0-.29.25-3.81,3.58-6.68,7.39-6.68h6.61c.49,0,.96-.19,1.32-.54l.88-.86v-.55l-.88.86c-.35.34-.82.54-1.32.54Z"/>
          </g>
          <g>
            <path class="cls-2" d="m70.18,50.89c-1.89,0-3.42,1.53-3.42,3.42s1.53,3.42,3.42,3.42,3.42-1.53,3.42-3.42-1.53-3.42-3.42-3.42Z"/>
            <path class="cls-6" d="m70.18,57.03c-1.77,0-3.2-1.35-3.38-3.07-.01.12-.04.23-.04.35,0,1.89,1.53,3.42,3.42,3.42s3.42-1.53,3.42-3.42c0-.12-.02-.23-.04-.35-.18,1.72-1.61,3.07-3.38,3.07Z"/>
            <circle class="cls-3" cx="70.06" cy="53.07" r="1.69"/>
          </g>
        </g>
      </g>
    </g>
  </g>
</svg>