<?xml version="1.0" encoding="UTF-8"?>
<svg xmlns="http://www.w3.org/2000/svg" viewBox="0 0 105 105">
  <defs>
    <style>
      .cls-1 {
        fill: #ce5900;
      }

      .cls-2 {
        fill: #ffb51f;
      }

      .cls-3 {
        isolation: isolate;
      }

      .cls-3, .cls-4 {
        fill: none;
      }

      .cls-5 {
        fill: #fff;
        opacity: .3;
      }

      .cls-5, .cls-4 {
        mix-blend-mode: soft-light;
      }

      .cls-6 {
        fill: #0f2840;
      }

      .cls-7 {
        fill: #009e48;
      }

      .cls-8 {
        fill: #ffd683;
      }

      .cls-4 {
        opacity: .65;
      }

      .cls-9 {
        fill: #1d4459;
      }

      .cls-10 {
        fill: #ffa400;
      }

      .cls-11 {
        fill: #ec6d00;
      }
    </style>
  </defs>
  <g class="cls-3">
    <g id="Capa_2" data-name="Capa 2">
      <g id="Process">
        <circle class="cls-7" cx="52.5" cy="52.5" r="52.5"/>
        <g>
          <path class="cls-6" d="m78.18,57.54c-7.66,0-13.88.39-13.88.86s6.21.86,13.88.86,13.88-.39,13.88-.86-6.21-.86-13.88-.86Z"/>
          <path class="cls-6" d="m25.34,57.54c-7.66,0-13.88.39-13.88.86s6.21.86,13.88.86,13.88-.39,13.88-.86-6.21-.86-13.88-.86Z"/>
          <g>
            <g>
              <circle class="cls-2" cx="24.8" cy="45.14" r="15.41" transform="translate(-9.71 6.9) rotate(-13.28)"/>
              <path class="cls-11" d="m24.8,31.08c-7.75,0-14.06,6.31-14.06,14.06s6.31,14.06,14.06,14.06,14.06-6.31,14.06-14.06-6.31-14.06-14.06-14.06Z"/>
              <path class="cls-10" d="m24.8,32.74c-6.83,0-12.4,5.56-12.4,12.4s5.56,12.4,12.4,12.4,12.4-5.56,12.4-12.4-5.56-12.4-12.4-12.4Z"/>
            </g>
            <g class="cls-4">
              <g>
                <path d="m26.83,52.18h1.39c1.16,0,2.15-.42,2.96-1.27.81-.85,1.22-1.91,1.22-3.19v-1.68l-5.57,6.14Z"/>
                <path d="m20.72,38.09c-1.16,0-2.15.42-2.96,1.27-.81.85-1.22,1.91-1.22,3.19v1.33l5.25-5.79h-1.07Z"/>
                <path d="m32.4,42.55c0-1.28-.41-2.34-1.22-3.19-.81-.85-1.8-1.27-2.96-1.27h-1.72l5.9,6.51v-2.05Z"/>
                <path d="m16.55,47.72c0,1.28.41,2.34,1.22,3.19.81.85,1.8,1.27,2.96,1.27h.75l-4.92-5.43v.97Z"/>
                <polygon points="24.23 38.19 17.93 45.15 24.23 52.11 30.54 45.15 24.23 38.19"/>
              </g>
            </g>
            <path class="cls-8" d="m24.8,29.73c-4.54,0-8.61,1.96-11.43,5.08,2.8-2.84,6.68-4.6,10.98-4.6,8.51,0,15.41,6.9,15.41,15.41,0,3.98-1.51,7.6-3.98,10.33,2.74-2.78,4.43-6.6,4.43-10.81,0-8.51-6.9-15.41-15.41-15.41Z"/>
            <path class="cls-1" d="m24.8,32.74c-4.29,0-8.07,2.19-10.3,5.51,2.26-3.04,5.87-5.03,9.95-5.03,6.83,0,12.4,5.56,12.4,12.4,0,2.55-.77,4.92-2.1,6.89,1.53-2.06,2.45-4.61,2.45-7.37,0-6.83-5.56-12.4-12.4-12.4Z"/>
            <path class="cls-5" d="m24.8,29.73c-2.76,0-5.35.73-7.59,2-1.17,2.17-1.84,4.66-1.84,7.3,0,8.51,6.9,15.41,15.41,15.41,2.76,0,5.35-.73,7.59-2,1.17-2.17,1.84-4.66,1.84-7.3,0-8.51-6.9-15.41-15.41-15.41Z"/>
            <path class="cls-1" d="m9.64,44.96c0-5.26,2.64-9.91,6.67-12.69-4.17,2.76-6.92,7.49-6.92,12.86,0,8.51,6.9,15.41,15.41,15.41,3.25,0,6.26-1.01,8.74-2.72-2.43,1.61-5.35,2.55-8.49,2.55-8.51,0-15.41-6.9-15.41-15.41Z"/>
          </g>
          <g>
            <g>
              <circle class="cls-2" cx="78.78" cy="44.96" r="15.41" transform="translate(-3.44 6.65) rotate(-4.73)"/>
              <circle class="cls-11" cx="78.78" cy="44.96" r="14.06" transform="translate(31.68 122.49) rotate(-88.44)"/>
              <path class="cls-10" d="m78.78,32.57c-6.83,0-12.4,5.56-12.4,12.4s5.56,12.4,12.4,12.4,12.4-5.56,12.4-12.4-5.56-12.4-12.4-12.4Z"/>
            </g>
            <path class="cls-8" d="m78.78,29.55c-4.54,0-8.61,1.96-11.43,5.08,2.8-2.84,6.68-4.6,10.98-4.6,8.51,0,15.41,6.9,15.41,15.41,0,3.98-1.51,7.6-3.98,10.33,2.74-2.78,4.43-6.6,4.43-10.81,0-8.51-6.9-15.41-15.41-15.41Z"/>
            <path class="cls-1" d="m78.78,32.57c-4.29,0-8.07,2.19-10.3,5.51,2.26-3.04,5.87-5.03,9.95-5.03,6.83,0,12.4,5.56,12.4,12.4,0,2.55-.77,4.92-2.1,6.89,1.53-2.06,2.45-4.61,2.45-7.37,0-6.83-5.56-12.4-12.4-12.4Z"/>
            <path class="cls-1" d="m63.62,44.79c0-5.26,2.64-9.91,6.67-12.69-4.17,2.76-6.92,7.49-6.92,12.86,0,8.51,6.9,15.41,15.41,15.41,3.25,0,6.26-1.01,8.74-2.72-2.43,1.61-5.35,2.55-8.49,2.55-8.51,0-15.41-6.9-15.41-15.41Z"/>
            <g>
              <path class="cls-1" d="m83.3,45.84c-.28-.32-.6-.59-.97-.81-.37-.22-.76-.41-1.17-.57-.41-.16-.84-.29-1.28-.4-.44-.11-.87-.21-1.28-.31-.61-.14-1.12-.29-1.53-.43-.41-.14-.74-.29-.98-.47-.25-.17-.42-.38-.52-.61-.1-.23-.15-.51-.15-.83,0-.72.28-1.29.84-1.71.56-.42,1.35-.64,2.39-.64,2.12,0,3.26.93,3.45,2.78h1.79c-.02-.72-.16-1.36-.43-1.93-.27-.57-.63-1.06-1.1-1.45-.47-.4-1.02-.7-1.66-.91-.64-.21-1.35-.32-2.13-.32-.74,0-1.41.11-2.02.32-.6.21-1.12.51-1.56.88-.43.38-.77.83-1.01,1.35-.24.52-.36,1.09-.36,1.71,0,.57.09,1.07.26,1.51.17.44.44.83.81,1.16.36.34.83.63,1.39.88.56.25,1.24.47,2.02.67.8.18,1.48.36,2.03.53.55.17,1,.37,1.34.59.34.22.58.47.73.76.15.29.23.65.23,1.07s-.08.77-.25,1.09c-.16.32-.4.6-.7.82-.3.23-.66.4-1.09.52-.42.12-.9.18-1.42.18s-1.03-.07-1.5-.2c-.47-.13-.88-.34-1.25-.62-.36-.28-.66-.63-.89-1.06-.23-.43-.37-.93-.42-1.51h-1.76c.02.76.16,1.46.41,2.1.25.64.62,1.19,1.11,1.65.49.46,1.1.82,1.83,1.08.73.26,1.59.39,2.57.39.75,0,1.43-.12,2.06-.34.63-.23,1.17-.55,1.63-.96.46-.41.82-.89,1.07-1.46.26-.56.38-1.18.38-1.85,0-.58-.08-1.09-.24-1.52-.16-.43-.38-.81-.66-1.13Z"/>
              <rect class="cls-1" x="76.52" y="34.63" width="1.63" height="21.07"/>
              <rect class="cls-1" x="79.42" y="34.63" width="1.63" height="21.07"/>
            </g>
            <path class="cls-5" d="m78.78,29.55c-2.76,0-5.35.73-7.59,2-1.17,2.17-1.84,4.66-1.84,7.3,0,8.51,6.9,15.41,15.41,15.41,2.76,0,5.35-.73,7.59-2,1.17-2.17,1.84-4.66,1.84-7.3,0-8.51-6.9-15.41-15.41-15.41Z"/>
          </g>
          <g>
            <ellipse class="cls-9" cx="51.86" cy="88.21" rx="12.7" ry=".79"/>
            <rect class="cls-9" x="25.34" y="63.08" width="26.42" height="2.68"/>
            <rect class="cls-9" x="51.76" y="63.08" width="26.42" height="2.68"/>
            <path class="cls-9" d="m44.7,77.41v5.85h14.68v-5.26l-7.34-14.93-7.34,14.34Z"/>
            <path class="cls-9" d="m59.13,75.85h-14.31c-1.48,0-2.7,1.21-2.7,2.7v4.72h19.71v-4.72c0-1.48-1.21-2.7-2.7-2.7Z"/>
            <path class="cls-9" d="m62.06,83.27h-20.4c-1.38,0-2.5,1.13-2.5,2.5v2.44h25.4v-2.44c0-1.38-1.13-2.5-2.5-2.5Z"/>
            <path class="cls-6" d="m27.92,63.9l-.51-.82-2.08,1.92v.76h26.42v-.76h-21.86c-.8,0-1.55-.42-1.97-1.1Z"/>
            <rect class="cls-6" x="51.76" y="65" width="26.42" height=".76"/>
            <path class="cls-9" d="m24.74,61.1c-1.55,0-2.8,1.25-2.8,2.8s1.25,2.8,2.8,2.8,2.8-1.25,2.8-2.8-1.25-2.8-2.8-2.8Z"/>
            <path class="cls-9" d="m78.78,61.1c-1.55,0-2.8,1.25-2.8,2.8s1.25,2.8,2.8,2.8,2.8-1.25,2.8-2.8-1.25-2.8-2.8-2.8Z"/>
            <path class="cls-6" d="m44.43,81.49v-1.72c0-1.31.98-2.42,2.29-2.57l11.6-1.34-8.25-.25c-1.03-.03-1.69-1.1-1.26-2.03l1.94-4.26-.4-2.92-4.84,9.46h-.68c-1.48,0-2.7,1.21-2.7,2.7v4.72h-.46c-1.38,0-2.5,1.13-2.5,2.5v2.44c0,.24,1.73.45,4.44.6v-.65c0-1.49,1.11-2.75,2.59-2.93l15.64-1.95-15.86-.22c-.85-.01-1.54-.71-1.54-1.56Z"/>
            <path class="cls-9" d="m52.04,59.36c-2.79,0-5.06,2.26-5.06,5.06s2.26,5.06,5.06,5.06,5.06-2.26,5.06-5.06-2.26-5.06-5.06-5.06Z"/>
            <path class="cls-6" d="m52.77,67.98c-2.79,0-5.06-2.26-5.06-5.06,0-.51.1-1,.24-1.46-.6.83-.97,1.85-.97,2.96,0,2.79,2.26,5.06,5.06,5.06,2.28,0,4.18-1.52,4.82-3.59-.92,1.27-2.4,2.1-4.09,2.1Z"/>
            <path class="cls-6" d="m24.74,61.1c-1.37,0-2.51.98-2.75,2.28,1.07.08,2.19.12,3.35.12.74,0,1.45-.02,2.16-.05-.22-1.33-1.36-2.35-2.76-2.35Z"/>
            <path class="cls-9" d="m25.34,59.26c-7.66,0-13.88-.39-13.88-.86,0,2.25,6.21,4.08,13.88,4.08s13.88-1.83,13.88-4.08c0,.48-6.21.86-13.88.86Z"/>
            <path class="cls-6" d="m12.82,58.77c-.86-.11-1.36-.24-1.36-.37,0,2.25,6.21,4.08,13.88,4.08,6.3,0,11.61-1.24,13.31-2.93-2.27,1.34-6.97,2.26-12.41,2.26-6.45,0-11.85-1.3-13.41-3.05Z"/>
            <path class="cls-6" d="m78.78,61.1c-1.55,0-2.8,1.25-2.8,2.8,0,.81.35,1.54.9,2.05-.16-.36-.26-.75-.26-1.17,0-1.55,1.25-2.8,2.8-2.8.73,0,1.4.29,1.9.75-.44-.96-1.41-1.64-2.54-1.64Z"/>
            <path class="cls-9" d="m78.18,59.26c-7.66,0-13.88-.39-13.88-.86,0,2.25,6.21,4.08,13.88,4.08s13.88-1.83,13.88-4.08c0,.48-6.21.86-13.88.86Z"/>
            <path class="cls-6" d="m65.74,58.78c-.91-.11-1.44-.24-1.44-.38,0,2.25,6.21,4.08,13.88,4.08,6.94,0,12.68-1.5,13.7-3.46-2.02,1.52-7.04,2.6-12.92,2.6-6.19,0-11.43-1.19-13.22-2.84Z"/>
          </g>
        </g>
      </g>
    </g>
  </g>
</svg>