<?xml version="1.0" encoding="UTF-8"?>
<svg xmlns="http://www.w3.org/2000/svg" viewBox="0 0 105 105">
  <defs>
    <style>
      .cls-1, .cls-2 {
        fill: #fff;
      }

      .cls-3 {
        fill: #ce5900;
      }

      .cls-4 {
        fill: #ffb51f;
      }

      .cls-5 {
        fill: #f28a04;
      }

      .cls-6 {
        isolation: isolate;
      }

      .cls-6, .cls-7 {
        fill: none;
      }

      .cls-2, .cls-8 {
        opacity: .3;
      }

      .cls-2, .cls-7 {
        mix-blend-mode: soft-light;
      }

      .cls-9 {
        fill: #ffd683;
      }

      .cls-8 {
        fill: #b09fb0;
        mix-blend-mode: multiply;
      }

      .cls-7 {
        opacity: .65;
      }

      .cls-10 {
        fill: #ffa400;
      }

      .cls-11 {
        fill: #ec6d00;
      }
    </style>
  </defs>
  <g class="cls-6">
    <g id="Capa_2" data-name="Capa 2">
      <g id="Process">
        <g>
          <circle class="cls-5" cx="52.5" cy="52.5" r="52.5"/>
          <g>
            <g>
              <circle class="cls-4" cx="39.87" cy="58.26" r="21.55"/>
              <path class="cls-11" d="m39.87,38.6c-10.84,0-19.66,8.82-19.66,19.66s8.82,19.66,19.66,19.66,19.66-8.82,19.66-19.66-8.82-19.66-19.66-19.66Z"/>
              <path class="cls-10" d="m39.87,40.93c-9.56,0-17.33,7.78-17.33,17.33s7.78,17.33,17.33,17.33,17.33-7.78,17.33-17.33-7.78-17.33-17.33-17.33Z"/>
            </g>
            <g class="cls-7">
              <g>
                <path d="m42.51,69.2h1.88c1.57,0,2.9-.57,4-1.72,1.1-1.15,1.65-2.58,1.65-4.31v-2.28l-7.53,8.3Z"/>
                <path d="m34.25,50.16c-1.57,0-2.9.57-4,1.72-1.1,1.15-1.65,2.58-1.65,4.31v1.8l7.1-7.83h-1.45Z"/>
                <path d="m50.04,56.19c0-1.73-.55-3.16-1.65-4.31-1.1-1.15-2.43-1.72-4-1.72h-2.33l7.97,8.8v-2.77Z"/>
                <path d="m28.6,63.18c0,1.73.55,3.16,1.65,4.31,1.1,1.15,2.43,1.72,4,1.72h1.01l-6.65-7.34v1.31Z"/>
                <polygon points="38.99 50.3 30.47 59.7 38.99 69.11 47.52 59.7 38.99 50.3"/>
              </g>
            </g>
            <path class="cls-9" d="m39.87,36.71c-6.34,0-12.04,2.74-15.99,7.1,3.91-3.97,9.34-6.43,15.35-6.43,11.9,0,21.55,9.65,21.55,21.55,0,5.56-2.11,10.63-5.56,14.45,3.83-3.89,6.2-9.23,6.2-15.12,0-11.9-9.65-21.55-21.55-21.55Z"/>
            <path class="cls-3" d="m39.87,40.93c-5.99,0-11.29,3.06-14.4,7.7,3.16-4.26,8.21-7.03,13.91-7.03,9.56,0,17.33,7.78,17.33,17.33,0,3.56-1.08,6.88-2.93,9.63,2.14-2.88,3.42-6.44,3.42-10.3,0-9.56-7.78-17.33-17.33-17.33Z"/>
            <path class="cls-2" d="m39.87,36.71c-3.86,0-7.48,1.02-10.61,2.8-1.64,3.04-2.57,6.51-2.57,10.21,0,11.9,9.65,21.55,21.55,21.55,3.86,0,7.48-1.02,10.61-2.8,1.64-3.04,2.57-6.51,2.57-10.21,0-11.9-9.65-21.55-21.55-21.55Z"/>
            <path class="cls-3" d="m18.68,58.02c0-7.36,3.69-13.86,9.32-17.74-5.83,3.86-9.68,10.47-9.68,17.98,0,11.9,9.65,21.55,21.55,21.55,4.54,0,8.75-1.41,12.22-3.81-3.4,2.25-7.48,3.56-11.87,3.56-11.9,0-21.55-9.65-21.55-21.55Z"/>
            <path class="cls-8" d="m43.84,37.09c-1.49,2.92-2.34,6.22-2.34,9.72,0,10.59,7.66,19.35,17.68,21,1.43-2.88,2.24-6.12,2.24-9.56,0-10.54-7.58-19.3-17.58-21.17Z"/>
          </g>
          <g>
            <g>
              <circle class="cls-4" cx="65.75" cy="45.26" r="21.55" transform="translate(-6.6 11.53) rotate(-9.55)"/>
              <path class="cls-11" d="m65.75,25.6c-10.84,0-19.66,8.82-19.66,19.66s8.82,19.66,19.66,19.66,19.66-8.82,19.66-19.66-8.82-19.66-19.66-19.66Z"/>
              <path class="cls-10" d="m65.75,27.93c-9.56,0-17.33,7.78-17.33,17.33s7.78,17.33,17.33,17.33,17.33-7.78,17.33-17.33-7.78-17.33-17.33-17.33Z"/>
            </g>
            <path class="cls-9" d="m65.75,23.71c-6.34,0-12.04,2.74-15.99,7.1,3.91-3.97,9.34-6.43,15.35-6.43,11.9,0,21.55,9.65,21.55,21.55,0,5.56-2.11,10.63-5.56,14.45,3.83-3.89,6.2-9.23,6.2-15.12,0-11.9-9.65-21.55-21.55-21.55Z"/>
            <path class="cls-3" d="m65.75,27.93c-5.99,0-11.29,3.06-14.4,7.7,3.16-4.26,8.21-7.03,13.91-7.03,9.56,0,17.33,7.78,17.33,17.33,0,3.56-1.08,6.88-2.93,9.63,2.14-2.88,3.42-6.44,3.42-10.3,0-9.56-7.78-17.33-17.33-17.33Z"/>
            <path class="cls-3" d="m44.55,45.02c0-7.36,3.69-13.86,9.32-17.74-5.83,3.86-9.68,10.47-9.68,17.98,0,11.9,9.65,21.55,21.55,21.55,4.54,0,8.75-1.41,12.22-3.81-3.4,2.25-7.48,3.56-11.87,3.56-11.9,0-21.55-9.65-21.55-21.55Z"/>
            <g>
              <path class="cls-3" d="m72.07,46.49c-.39-.44-.84-.82-1.36-1.13-.52-.31-1.07-.58-1.64-.8-.58-.22-1.17-.41-1.79-.56-.61-.15-1.21-.3-1.79-.44-.85-.2-1.57-.4-2.14-.6-.57-.19-1.03-.41-1.38-.66-.34-.24-.59-.53-.73-.85-.14-.32-.22-.71-.22-1.17,0-1,.39-1.8,1.17-2.39.78-.59,1.89-.89,3.34-.89,2.96,0,4.57,1.3,4.82,3.88h2.5c-.03-1-.23-1.9-.6-2.7-.37-.8-.88-1.48-1.53-2.03s-1.42-.98-2.32-1.28c-.89-.3-1.89-.44-2.98-.44-1.03,0-1.97.15-2.82.44-.85.3-1.57.71-2.18,1.24-.61.53-1.08,1.16-1.41,1.89-.33.73-.5,1.53-.5,2.39,0,.79.12,1.5.37,2.11.24.61.62,1.15,1.13,1.62.51.47,1.16.88,1.94,1.23.79.35,1.73.66,2.82.93,1.12.25,2.07.5,2.84.75.77.24,1.4.52,1.87.82.47.31.82.66,1.03,1.07.21.41.32.91.32,1.5s-.12,1.08-.34,1.53c-.23.45-.55.83-.98,1.15-.42.32-.93.56-1.52.73-.59.17-1.25.25-1.98.25s-1.45-.09-2.1-.28c-.65-.19-1.24-.47-1.74-.86-.51-.39-.92-.89-1.25-1.48-.32-.6-.52-1.3-.59-2.12h-2.47c.03,1.07.22,2.05.57,2.94.35.89.87,1.66,1.56,2.31.68.65,1.54,1.15,2.56,1.51,1.02.36,2.22.54,3.59.54,1.04,0,2.01-.16,2.89-.48.88-.32,1.64-.77,2.28-1.34.64-.57,1.14-1.25,1.5-2.04.36-.79.54-1.65.54-2.59,0-.82-.11-1.53-.34-2.13-.22-.61-.53-1.13-.92-1.58Z"/>
              <rect class="cls-3" x="62.59" y="30.82" width="2.28" height="29.46"/>
              <rect class="cls-3" x="66.64" y="30.82" width="2.28" height="29.46"/>
            </g>
            <path class="cls-2" d="m65.75,23.71c-3.86,0-7.48,1.02-10.61,2.8-1.64,3.04-2.57,6.51-2.57,10.21,0,11.9,9.65,21.55,21.55,21.55,3.86,0,7.48-1.02,10.61-2.8,1.64-3.04,2.57-6.51,2.57-10.21,0-11.9-9.65-21.55-21.55-21.55Z"/>
          </g>
          <path class="cls-1" d="m64.58,74.8c-.39.77-2.1,3.9-4.95,5.12-4.44,1.89-10.2.23-10.2.23,0,0,4.26,4.56,12.35,3.75,4.74-.47,8.68-5.12,9.27-5.84l2.35,1.19v-12.05s-10.9,6.56-10.9,6.56l2.07,1.05Z"/>
          <path class="cls-1" d="m41.54,20.66c-4.78.47-8.75,5.16-9.33,5.88l-2.37-1.2v12.14s10.98-6.6,10.98-6.6l-2.09-1.05c.39-.78,2.12-3.93,4.99-5.15,4.47-1.91,10.27-.24,10.27-.24,0,0-4.29-4.59-12.45-3.78Z"/>
        </g>
      </g>
    </g>
  </g>
</svg>