<?xml version="1.0" encoding="UTF-8"?>
<svg xmlns="http://www.w3.org/2000/svg" viewBox="0 0 105 105">
  <defs>
    <style>
      .cls-1 {
        fill: #ce5900;
      }

      .cls-2 {
        fill: #ffb51f;
      }

      .cls-3 {
        isolation: isolate;
      }

      .cls-3, .cls-4 {
        fill: none;
      }

      .cls-5 {
        fill: #fff;
        opacity: .3;
      }

      .cls-5, .cls-4 {
        mix-blend-mode: soft-light;
      }

      .cls-6 {
        fill: #ffd683;
      }

      .cls-4 {
        opacity: .65;
      }

      .cls-7 {
        fill: #3a9fff;
      }

      .cls-8 {
        fill: #39afe4;
      }

      .cls-9 {
        fill: #ffa400;
      }

      .cls-10 {
        fill: #ec6d00;
      }
    </style>
  </defs>
  <g class="cls-3">
    <g id="Capa_2" data-name="Capa 2">
      <g id="Process">
        <g>
          <circle class="cls-8" cx="52.5" cy="52.5" r="52.5"/>
          <g>
            <g>
              <path class="cls-7" d="m36.38,20.92l-.3.46c-.38.58-.21,1.36.38,1.74l23.06,14.88c.58.38.75,1.16.38,1.74l-.28.43c-.38.58-1.16.75-1.74.38l-30.09-19.42c-1.37-.88-3.19-.49-4.07.88s-.49,3.19.88,4.07l21.94,14.16c.58.38.75,1.16.38,1.74-.38.58-1.16.75-1.74.38l-15.32-9.89c-1.25-.81-2.92-.45-3.72.8-.81,1.25-.45,2.92.8,3.72l16.86,10.88c1.07.69,1.37,2.11.69,3.18s-2.11,1.37-3.18.69l-24.12-15.57c-1.69-1.09-3.94-.6-5.03,1.08-1.09,1.69-.6,3.94,1.08,5.03l25.97,16.76c1.01.65,1.3,2,.65,3.02-.65,1.01-2,1.3-3.02.65l-15.23-9.83c-1.32-.85-3.07-.47-3.92.84-.85,1.32-.47,3.07.84,3.92l37.88,24.45,22.67-35.12-40.95-26.43c-.58-.38-1.36-.21-1.74.38Z"/>
              <path class="cls-7" d="m15.88,25.9c-1.21,0-2.19.98-2.19,2.19s.98,2.19,2.19,2.19,2.19-.98,2.19-2.19-.98-2.19-2.19-2.19Z"/>
              <path class="cls-7" d="m12.93,49.58c-1.21,0-2.19.98-2.19,2.19s.98,2.19,2.19,2.19,2.19-.98,2.19-2.19-.98-2.19-2.19-2.19Z"/>
              <path class="cls-7" d="m32.75,17.71c-1.3-.8-2.69-.9-3.1-.22-.42.68.3,1.87,1.59,2.67,1.3.8,2.69.9,3.1.22.42-.68-.3-1.87-1.59-2.67Z"/>
            </g>
            <g>
              <g>
                <circle class="cls-2" cx="67.07" cy="64.1" r="20.9" transform="translate(-25.64 60.48) rotate(-41.47)"/>
                <path class="cls-10" d="m68.71,45.11c-10.47-.9-19.73,6.88-20.63,17.35-.9,10.47,6.88,19.73,17.35,20.63,10.47.9,19.73-6.88,20.63-17.35.9-10.47-6.88-19.73-17.35-20.63Z"/>
                <path class="cls-9" d="m68.52,47.36c-9.23-.8-17.39,6.07-18.19,15.3-.8,9.23,6.07,17.39,15.3,18.19,9.23.8,17.39-6.07,18.19-15.3.8-9.23-6.07-17.39-15.3-18.19Z"/>
              </g>
              <g class="cls-4">
                <g>
                  <path d="m70.26,74.2h1.88c1.57,0,2.9-.57,4-1.72,1.1-1.15,1.65-2.58,1.65-4.31v-2.28l-7.53,8.3Z"/>
                  <path d="m62,55.15c-1.57,0-2.9.57-4,1.72-1.1,1.15-1.65,2.58-1.65,4.31v1.8l7.1-7.83h-1.45Z"/>
                  <path d="m77.79,61.18c0-1.73-.55-3.16-1.65-4.31-1.1-1.15-2.43-1.72-4-1.72h-2.33l7.97,8.8v-2.77Z"/>
                  <path d="m56.35,68.17c0,1.73.55,3.16,1.65,4.31,1.1,1.15,2.43,1.72,4,1.72h1.01l-6.65-7.34v1.31Z"/>
                  <polygon points="66.74 55.29 58.22 64.69 66.74 74.1 75.27 64.69 66.74 55.29"/>
                </g>
              </g>
              <path class="cls-6" d="m68.87,43.28c-6.13-.53-11.86,1.64-16.04,5.53,4.11-3.51,9.56-5.44,15.37-4.93,11.5.99,20.01,11.12,19.02,22.62-.46,5.37-2.92,10.09-6.58,13.49,4.02-3.44,6.76-8.4,7.25-14.09.99-11.5-7.52-21.62-19.02-22.62Z"/>
              <path class="cls-1" d="m68.52,47.36c-5.79-.5-11.16,2.02-14.56,6.24,3.41-3.85,8.52-6.11,14.02-5.63,9.23.8,16.1,8.96,15.3,18.19-.3,3.44-1.62,6.55-3.64,9.06,2.31-2.61,3.85-5.94,4.17-9.67.8-9.23-6.07-17.39-15.3-18.19Z"/>
              <path class="cls-5" d="m68.87,43.28c-3.73-.32-7.31.36-10.48,1.82-1.84,2.8-3.02,6.08-3.33,9.65-.99,11.5,7.52,21.62,19.02,22.62,3.73.32,7.31-.36,10.49-1.82,1.84-2.8,3.02-6.08,3.33-9.65.99-11.5-7.52-21.62-19.02-22.62Z"/>
              <path class="cls-1" d="m65.64,84.72c-11.5-.99-20.01-11.12-19.02-22.62.61-7.11,4.72-13.08,10.49-16.36-5.96,3.24-10.23,9.31-10.85,16.57-.99,11.5,7.52,21.62,19.02,22.62,4.39.38,8.57-.63,12.13-2.66-3.48,1.89-7.53,2.82-11.76,2.45Z"/>
            </g>
          </g>
        </g>
      </g>
    </g>
  </g>
</svg>